name Visual3d_SIMM_grf.mot
datacolumns 19
datarows 49
range 0.820000 1.300000
endheader
time	ground_force_vx	ground_force_vy	ground_force_vz	ground_force_px	ground_force_py	ground_force_pz	l_ground_force_vx	l_ground_force_vy	l_ground_force_vz	l_ground_force_px	l_ground_force_py	l_ground_force_pz	ground_torque_x	ground_torque_y	ground_torque_z	l_ground_torque_x	l_ground_torque_y	l_ground_torque_z
0.820000	44.830597	141.469376	-2.444271	-0.181150	-0.001309	-0.192573	-24.919563	143.125137	-4.989008	0.270416	-0.005112	-0.202402	-0.000951	1.028454	-0.002295	0.000657	-0.050220	-0.000968
0.830000	38.289982	110.826637	-1.630425	-0.179872	-0.001789	-0.193462	-35.221100	179.874374	-3.590851	0.273777	-0.005440	-0.202874	-0.000678	0.732578	-0.001635	0.000797	-0.060995	-0.001176
0.840000	30.210510	81.296677	-0.935401	-0.179293	-0.001813	-0.194326	-44.937550	213.071472	-0.882897	0.277154	-0.005687	-0.203853	-0.000409	0.441977	-0.000986	0.000629	-0.048076	-0.000927
0.850000	21.542620	55.078423	-0.457241	-0.178705	-0.001508	-0.195175	-53.135677	241.585190	2.649250	0.280559	-0.005768	-0.205323	-0.000161	0.173947	-0.000388	-0.000151	0.011525	0.000222
0.860000	13.445155	33.787891	-0.188682	-0.177176	-0.001004	-0.195915	-59.337337	264.851288	6.258063	0.283880	-0.005648	-0.207076	0.000049	-0.053382	0.000119	-0.001699	0.129916	0.002504
0.870000	0.000000	0.000000	0.000000	0.000000	0.000000	0.000000	-63.168171	283.041382	9.374228	0.286908	-0.005337	-0.208853	0.000000	0.000000	0.000000	-0.003852	0.294631	0.005679
0.880000	0.000000	0.000000	0.000000	0.000000	0.000000	0.000000	-64.542320	296.525940	11.783572	0.289454	-0.004875	-0.210445	0.000000	0.000000	0.000000	-0.006184	0.472978	0.009117
0.890000	0.000000	0.000000	0.000000	0.000000	0.000000	0.000000	-63.629894	305.246490	13.512676	0.291419	-0.004323	-0.211723	0.000000	0.000000	0.000000	-0.008281	0.633379	0.012208
0.900000	0.000000	0.000000	0.000000	0.000000	0.000000	0.000000	-60.724709	308.912476	14.694346	0.292814	-0.003744	-0.212652	0.000000	0.000000	0.000000	-0.009881	0.755697	0.014566
0.910000	0.000000	0.000000	0.000000	0.000000	0.000000	0.000000	-56.251167	307.329224	15.504209	0.293762	-0.003192	-0.213282	0.000000	0.000000	0.000000	-0.010836	0.828754	0.015974
0.920000	0.000000	0.000000	0.000000	0.000000	0.000000	0.000000	-50.714836	300.624268	16.129198	0.294459	-0.002699	-0.213728	0.000000	0.000000	0.000000	-0.011116	0.850190	0.016387
0.930000	0.000000	0.000000	0.000000	0.000000	0.000000	0.000000	-44.626472	289.364594	16.708063	0.295150	-0.002280	-0.214128	0.000000	0.000000	0.000000	-0.010831	0.828374	0.015967
0.940000	0.000000	0.000000	0.000000	0.000000	0.000000	0.000000	-38.464325	274.558868	17.309433	0.296094	-0.001934	-0.214615	0.000000	0.000000	0.000000	-0.010143	0.775791	0.014953
0.950000	0.000000	0.000000	0.000000	0.000000	0.000000	0.000000	-32.627342	257.584930	17.928989	0.297538	-0.001650	-0.215294	0.000000	0.000000	0.000000	-0.009204	0.703981	0.013569
0.960000	0.000000	0.000000	0.000000	0.000000	0.000000	0.000000	-27.393326	240.048676	18.492516	0.299684	-0.001421	-0.216203	0.000000	0.000000	0.000000	-0.008140	0.622545	0.012000
0.970000	0.000000	0.000000	0.000000	0.000000	0.000000	0.000000	-22.900911	223.523544	18.893858	0.302666	-0.001245	-0.217318	0.000000	0.000000	0.000000	-0.007032	0.537794	0.010366
0.980000	0.000000	0.000000	0.000000	0.000000	0.000000	0.000000	-19.175018	209.313995	19.034094	0.306508	-0.001123	-0.218558	0.000000	0.000000	0.000000	-0.005899	0.451197	0.008697
0.990000	0.000000	0.000000	0.000000	0.000000	0.000000	0.000000	-16.156504	198.288269	18.854856	0.311117	-0.001055	-0.219801	0.000000	0.000000	0.000000	-0.004703	0.359679	0.006933
1.000000	0.000000	0.000000	0.000000	0.000000	0.000000	0.000000	-13.741903	190.809601	18.358517	0.316297	-0.001039	-0.220918	0.000000	0.000000	0.000000	-0.003362	0.257158	0.004957
1.010000	0.000000	0.000000	0.000000	0.000000	0.000000	0.000000	-11.823233	186.767395	17.608749	0.321789	-0.001061	-0.221821	0.000000	0.000000	0.000000	-0.001791	0.137002	0.002641
1.020000	0.000000	0.000000	0.000000	0.000000	0.000000	0.000000	-10.310154	185.714844	16.720705	0.327342	-0.001099	-0.222476	0.000000	0.000000	0.000000	0.000045	-0.003475	-0.000067
1.030000	0.000000	0.000000	0.000000	0.000000	0.000000	0.000000	-9.132483	187.048386	15.833094	0.332812	-0.001130	-0.222886	0.000000	0.000000	0.000000	0.002098	-0.160480	-0.003093
1.040000	0.000000	0.000000	0.000000	0.000000	0.000000	0.000000	-8.247614	190.165070	15.083338	0.338179	-0.001134	-0.223080	0.000000	0.000000	0.000000	0.004247	-0.324807	-0.006261
1.050000	0.000000	0.000000	0.000000	0.000000	0.000000	0.000000	-7.630994	194.553894	14.580081	0.343511	-0.001098	-0.223113	0.000000	0.000000	0.000000	0.006323	-0.483595	-0.009321
1.060000	0.000000	0.000000	0.000000	0.000000	0.000000	0.000000	-7.257912	199.844849	14.391307	0.348897	-0.001027	-0.223028	0.000000	0.000000	0.000000	0.008150	-0.623356	-0.012015
1.070000	0.000000	0.000000	0.000000	0.000000	0.000000	0.000000	-7.081244	205.791748	14.533111	0.354364	-0.000941	-0.222863	0.000000	0.000000	0.000000	0.009576	-0.732388	-0.014117
1.080000	0.000000	0.000000	0.000000	0.000000	0.000000	0.000000	-7.005224	212.228867	14.974437	0.359839	-0.000867	-0.222649	0.000000	0.000000	0.000000	0.010497	-0.802842	-0.015475
1.090000	0.000000	0.000000	0.000000	0.000000	0.000000	0.000000	-6.877469	219.045166	15.642662	0.365157	-0.000817	-0.222415	0.000000	0.000000	0.000000	0.010873	-0.831582	-0.016029
1.100000	0.000000	0.000000	0.000000	0.000000	0.000000	0.000000	-6.513628	226.154449	16.438013	0.370119	-0.000788	-0.222169	0.000000	0.000000	0.000000	0.010726	-0.820332	-0.015812
1.110000	0.000000	0.000000	0.000000	0.000000	0.000000	0.000000	-5.729986	233.479507	17.245226	0.374546	-0.000778	-0.221893	0.000000	0.000000	0.000000	0.010150	-0.776312	-0.014963
1.120000	0.000000	0.000000	0.000000	0.000000	0.000000	0.000000	-4.386975	240.927490	17.939764	0.378315	-0.000790	-0.221554	0.000000	0.000000	0.000000	0.009325	-0.713212	-0.013747
1.130000	0.000000	0.000000	0.000000	0.000000	0.000000	0.000000	-2.406237	248.356064	18.404476	0.381379	-0.000833	-0.221130	0.000000	0.000000	0.000000	0.008490	-0.649321	-0.012516
1.140000	0.000000	0.000000	0.000000	0.000000	0.000000	0.000000	0.230071	255.574951	18.587040	0.383764	-0.000919	-0.220611	0.000000	0.000000	0.000000	0.007857	-0.600925	-0.011583
1.150000	0.000000	0.000000	0.000000	0.000000	0.000000	0.000000	3.479659	262.371216	18.583767	0.385551	-0.001060	-0.220018	0.000000	0.000000	0.000000	0.007465	-0.570956	-0.011005
1.160000	0.000000	0.000000	0.000000	0.000000	0.000000	0.000000	7.226801	268.513397	18.606224	0.386859	-0.001260	-0.219391	0.000000	0.000000	0.000000	0.007173	-0.548647	-0.010575
1.170000	0.000000	0.000000	0.000000	0.000000	0.000000	0.000000	11.333102	273.729370	18.866014	0.387820	-0.001519	-0.218773	0.000000	0.000000	0.000000	0.006760	-0.517056	-0.009966
1.180000	0.000000	0.000000	0.000000	0.000000	0.000000	0.000000	15.679963	277.714050	19.494459	0.388548	-0.001821	-0.218184	0.000000	0.000000	0.000000	0.006023	-0.460685	-0.008880
1.190000	0.000000	0.000000	0.000000	0.000000	0.000000	0.000000	20.165451	280.137024	20.498774	0.389145	-0.002144	-0.217625	0.000000	0.000000	0.000000	0.004856	-0.371401	-0.007159
1.200000	0.000000	0.000000	0.000000	0.000000	0.000000	0.000000	24.694782	280.698517	21.767048	0.389687	-0.002454	-0.217069	0.000000	0.000000	0.000000	0.003268	-0.249979	-0.004818
1.210000	0.000000	0.000000	0.000000	0.000000	0.000000	0.000000	29.171825	279.135101	23.103029	0.390225	-0.002720	-0.216474	0.000000	0.000000	0.000000	0.001374	-0.105085	-0.002026
1.220000	0.000000	0.000000	0.000000	0.000000	0.000000	0.000000	33.485470	275.210754	24.283968	0.390788	-0.002917	-0.215785	0.000000	0.000000	0.000000	-0.000659	0.050384	0.000971
1.230000	0.000000	0.000000	0.000000	0.000000	0.000000	0.000000	37.505310	268.688110	25.107054	0.391395	-0.003028	-0.214946	0.000000	0.000000	0.000000	-0.002656	0.203128	0.003915
1.240000	0.000000	0.000000	0.000000	0.000000	0.000000	0.000000	41.075928	259.318817	25.418100	0.392051	-0.003049	-0.213911	0.000000	0.000000	0.000000	-0.004464	0.341428	0.006581
1.250000	0.000000	0.000000	0.000000	0.000000	0.000000	0.000000	44.006161	246.851608	25.110682	0.392737	-0.002989	-0.212656	0.000000	0.000000	0.000000	-0.005948	0.454913	0.008768
1.260000	0.000000	0.000000	0.000000	0.000000	0.000000	0.000000	46.054974	231.064270	24.132111	0.393402	-0.002862	-0.211179	0.000000	0.000000	0.000000	-0.007019	0.536838	0.010348
1.270000	0.000000	0.000000	0.000000	0.000000	0.000000	0.000000	46.952972	211.840576	22.481346	0.393934	-0.002678	-0.209495	0.000000	0.000000	0.000000	-0.007627	0.583306	0.011243
1.280000	0.000000	0.000000	0.000000	0.000000	0.000000	0.000000	46.435814	189.288513	20.211723	0.394129	-0.002436	-0.207627	0.000000	0.000000	0.000000	-0.007750	0.592777	0.011426
1.290000	0.000000	0.000000	0.000000	0.000000	0.000000	0.000000	44.296463	163.825470	17.434734	0.393692	-0.002122	-0.205613	0.000000	0.000000	0.000000	-0.007427	0.568030	0.010949
1.300000	0.000000	0.000000	0.000000	0.000000	0.000000	0.000000	40.459854	136.313217	14.317112	0.392275	-0.001712	-0.203498	0.000000	0.000000	0.000000	-0.006709	0.513160	0.009891
